<svg xmlns="http://www.w3.org/2000/svg" xmlns:xlink="http://www.w3.org/1999/xlink" version="1.1" x="0px" y="0px" viewBox="0 0 100 125" enable-background="new 0 0 100 100" xml:space="preserve"><g><g><circle cx="8.008" cy="60.101" r="3.008"/><circle cx="91.992" cy="60.102" r="3.008"/><path d="M92.236,50.668c-0.076-0.682-0.158-1.407-0.246-2.172c-0.182-0.764-0.373-1.568-0.573-2.407    c-0.278-0.826-0.618-1.69-0.994-2.59c-0.51-0.832-0.903-1.806-1.624-2.636c-1.242-1.8-3.247-3.361-5.67-4.407    c-2.464-1.1-5.365-1.171-8.077-0.751l-2.028,0.438c-0.643,0.201-1.26,0.445-1.896,0.681c-1.286,0.41-2.518,1.192-3.775,1.889    c-0.715,0.399-1.013,0.635-1.5,0.945l-1.344,0.883l-1.648,1.373l-1.433,1.231c-1.788,1.724-3.46,3.548-4.875,5.442    c-0.313,0.412-0.581,0.828-0.876,1.242c-0.423-1.98-1.003-4.039-1.74-6.124c-0.781-2.231-1.826-4.474-3.019-6.655l-0.994-1.603    l-1.163-1.806l-1.015-1.244c-0.373-0.443-0.587-0.759-1.146-1.353c-0.996-1.045-1.933-2.159-3.036-2.936    c-0.54-0.417-1.055-0.836-1.607-1.22l-1.802-1.027c-2.461-1.214-5.249-2.019-7.93-1.71c-2.626,0.271-5.007,1.157-6.732,2.501    c-0.935,0.575-1.604,1.386-2.341,2.027c-0.628,0.746-1.212,1.468-1.725,2.171c-0.443,0.74-0.866,1.45-1.27,2.124    c-0.313,0.703-0.609,1.369-0.887,1.997c-0.521,1.251-0.801,2.396-1.098,3.292c-0.382,1.852-0.6,2.91-0.6,2.91    s0.514-0.934,1.413-2.566c0.542-0.757,1.114-1.716,1.921-2.68c0.409-0.468,0.844-0.966,1.303-1.492    c0.507-0.454,1.041-0.932,1.597-1.43c0.594-0.434,1.224-0.849,1.855-1.262c0.705-0.282,1.339-0.736,2.085-0.892    c1.416-0.548,2.939-0.487,4.257-0.203c1.343,0.262,2.498,1.17,3.519,2.167l0.74,0.823l0.656,0.988    c0.498,0.623,0.685,1.339,1.023,1.941c0.135,0.213,0.374,0.871,0.563,1.324l0.603,1.49l0.075,0.186l0.019,0.047    c0.036,0.068-0.287-0.51-0.148-0.255l0.005,0.02l0.02,0.081l0.081,0.323l0.162,0.638l0.322,1.252    c0.313,1.716,0.537,3.392,0.579,5.056c0.049,1.659,0.006,3.264-0.167,4.798c-0.132,1.521-0.388,2.971-0.654,4.287    c-0.243,1.186-0.517,2.254-0.791,3.218c0.556-3.142,1.142-8.124,0.833-12.539c-0.066-0.939-0.208-1.832-0.391-2.854    c-0.163-0.161-0.311-0.332-0.477-0.491l-1.429-1.231l-1.652-1.373l-1.341-0.883c-0.49-0.31-0.788-0.546-1.5-0.945    c-1.264-0.698-2.493-1.479-3.778-1.889c-0.64-0.236-1.257-0.48-1.9-0.681l-2.028-0.438c-0.8-0.124-1.617-0.186-2.434-0.211    l-0.906,1.046c-0.516,0.617-0.938,1.248-1.32,1.815c-0.109,0.163-0.803,1.22-1.389,2.13c1.204,0.435,2.115,1.441,2.452,2.687    c0.43,0.163,0.855,0.347,1.268,0.555l0.954,0.563l0.922,0.746c0.662,0.445,1.056,1.072,1.558,1.544    c0.193,0.163,0.618,0.718,0.936,1.094l1.021,1.24l0.128,0.154l0.032,0.039c0.057,0.054-0.428-0.4-0.218-0.2l0.011,0.018    l0.044,0.071l0.175,0.282l0.346,0.561l0.683,1.1c0.815,1.543,1.532,3.074,2.071,4.648c0.545,1.568,0.986,3.112,1.282,4.628    c0.332,1.491,0.523,2.949,0.665,4.286c0.171,1.654,0.225,3.115,0.229,4.368h-0.63v4.185c0,1.578,7.693,2.862,17.185,2.862    c9.492,0,17.188-1.284,17.188-2.862v-4.185h-0.652c0.004-1.253,0.057-2.714,0.229-4.368c0.145-1.336,0.334-2.795,0.666-4.286    c0.295-1.516,0.736-3.06,1.281-4.628c0.541-1.574,1.256-3.105,2.071-4.648l0.683-1.1l0.347-0.561l0.178-0.282l0.044-0.071    l0.012-0.018c0.211-0.201-0.271,0.254-0.219,0.2l0.032-0.039l0.127-0.154l1.021-1.24c0.317-0.376,0.742-0.931,0.938-1.094    c0.503-0.472,0.896-1.099,1.559-1.544l0.924-0.746l0.953-0.563c1.273-0.645,2.648-1.163,4.01-1.009    c1.34,0.124,2.813,0.524,4,1.472c0.662,0.373,1.133,0.996,1.72,1.477c0.479,0.583,0.954,1.169,1.391,1.76    c0.382,0.644,0.747,1.259,1.095,1.845c0.278,0.639,0.545,1.245,0.795,1.814c0.479,1.163,0.736,2.249,1.025,3.134    c0.366,1.827,0.575,2.873,0.575,2.873s0.108-1.076,0.304-2.957C92.279,53.193,92.357,52.018,92.236,50.668z"/><path d="M16.759,40.325c0.213-0.927,0.716-2.966,0.791-3.218c0.092-0.306,0.195-0.64,0.304-0.978    c-0.328,0.108-0.667,0.188-0.984,0.328c-2.423,1.046-4.428,2.607-5.67,4.407c-0.719,0.83-1.114,1.803-1.624,2.636    C9.2,44.4,8.86,45.264,8.582,46.09c-0.2,0.839-0.391,1.643-0.573,2.407c-0.087,0.765-0.17,1.49-0.247,2.172    c-0.121,1.349-0.044,2.524-0.057,3.47c0.192,1.881,0.302,2.957,0.302,2.957s0.21-1.046,0.576-2.873    c0.29-0.885,0.547-1.971,1.027-3.134c0.249-0.569,0.515-1.175,0.794-1.814c0.347-0.586,0.713-1.201,1.094-1.845    c0.436-0.592,0.913-1.177,1.39-1.76c0.287-0.234,0.545-0.503,0.812-0.76c-0.045-0.236-0.074-0.478-0.074-0.727    C13.628,42.285,14.973,40.7,16.759,40.325z"/><circle cx="17.569" cy="44.18" r="3.008"/></g></g><text x="0" y="115" fill="#000000" font-size="5px" font-weight="bold" font-family="'Helvetica Neue', Helvetica, Arial-Unicode, Arial, Sans-serif">Created by Juan Pablo Bravo</text><text x="0" y="120" fill="#000000" font-size="5px" font-weight="bold" font-family="'Helvetica Neue', Helvetica, Arial-Unicode, Arial, Sans-serif">from the Noun Project</text></svg>